#!OML:ASF H:\Dans Jumps\Project 1\Capture day 1\Session 1\subject.ASF
:FULLY-SPECIFIED
:DEGREES
313
root 0.541854 14.8636 -16.4993 23.6586 -1.31982 -1.94716
lowerback 26.0976 0.0839937 -0.27797
upperback 12.4801 0.086154 1.72755
thorax -0.626118 -0.0465264 2.00766
lowerneck -17.2274 1.03023 -1.11109
upperneck 10.8437 1.77741 -0.848653
head 6.09589 0.742192 0.0869422
rclavicle -3.21783e-015 1.19457e-014
rhumerus -36.2466 -10.839 -75.666
rradius 26.2958
rwrist 25.6989
rhand -18.2762 -24.1702
rfingers 7.12502
rthumb 8.00378 -53.9987
lclavicle -3.21783e-015 1.19457e-014
lhumerus -35.3189 -0.865992 85.4957
lradius 16.1611
lwrist 11.4378
lhand -30.2946 -7.81075
lfingers 7.12502
lthumb -3.60192 22.1386
rfemur -71.725 -4.78012 22.7259
rtibia 73.3452
rfoot -22.6241 -9.08024
rtoes 1.87349
lfemur -71.1301 8.30671 -22.7392
ltibia 73.1221
lfoot -21.7085 12.5017
ltoes -1.09875
314
root 0.54269 14.8492 -16.5021 23.7248 -1.31442 -1.94048
lowerback 26.1904 0.0821422 -0.265217
upperback 12.4966 0.0869172 1.72792
thorax -0.651115 -0.0456911 2.00119
lowerneck -17.2366 1.01881 -1.13929
upperneck 10.7537 1.76477 -0.828665
head 6.06816 0.737437 0.0962986
rclavicle 3.18055e-015 8.36138e-015
rhumerus -36.5612 -10.8557 -75.5474
rradius 26.3907
rwrist 25.617
rhand -18.3406 -24.1437
rfingers 7.12502
rthumb 7.9416 -53.9745
lclavicle 3.18055e-015 8.36138e-015
lhumerus -35.6632 -0.893949 85.4925
lradius 16.2784
lwrist 11.6454
lhand -30.2514 -7.68512
lfingers 7.12502
lthumb -3.56019 22.2649
rfemur -71.9173 -4.7785 22.7211
rtibia 73.5197
rfoot -22.6687 -9.10287
rtoes 1.85261
lfemur -71.3224 8.30079 -22.7693
ltibia 73.295
lfoot -21.7594 12.5168
ltoes -1.09702
315
root 0.543672 14.8349 -16.5049 23.7872 -1.30751 -1.93958
lowerback 26.2883 0.0794493 -0.245705
upperback 12.511 0.0882112 1.72928
thorax -0.680704 -0.0443227 1.99183
lowerneck -17.2796 1.00738 -1.16602
upperneck 10.6949 1.75215 -0.80436
head 6.05592 0.732678 0.107107
rclavicle 8.69683e-017 2.0773e-014
rhumerus -36.8876 -10.8327 -75.4459
rradius 26.4965
rwrist 25.5298
rhand -18.4258 -24.0544
rfingers 7.12502
rthumb 7.85933 -53.8883
lclavicle 8.69683e-017 2.0773e-014
lhumerus -36.0594 -1.03197 85.5559
lradius 16.4724
lwrist 12.0718
lhand -30.3004 -7.64073
lfingers 7.12502
lthumb -3.6076 22.3085
rfemur -72.1027 -4.77745 22.7228
rtibia 73.6901
rfoot -22.7122 -9.12767
rtoes 1.8146
lfemur -71.5118 8.298 -22.795
ltibia 73.4664
lfoot -21.8062 12.534
ltoes -1.11305
316
root 0.544687 14.8209 -16.5076 23.85 -1.30166 -1.93975
lowerback 26.3825 0.0764946 -0.22653
upperback 12.5271 0.0890565 1.73014
thorax -0.706601 -0.0432137 1.9822
lowerneck -17.3222 0.992385 -1.20348
upperneck 10.6313 1.73524 -0.766401
head 6.04189 0.726582 0.123549
rclavicle 4.72114e-016 -4.62174e-015
rhumerus -37.2074 -10.7743 -75.3684
rradius 26.6031
rwrist 25.4316
rhand -18.5178 -23.9716
rfingers 7.12502
rthumb 7.7706 -53.8088
lclavicle 4.72114e-016 -4.62174e-015
lhumerus -36.4865 -1.24605 85.6732
lradius 16.7176
lwrist 12.6699
lhand -30.3534 -7.59338
lfingers 7.12502
lthumb -3.65873 22.355
rfemur -72.2858 -4.77509 22.725
rtibia 73.8558
rfoot -22.7535 -9.15364
rtoes 1.76564
lfemur -71.701 8.29741 -22.8216
ltibia 73.634
lfoot -21.8468 12.5551
ltoes -1.14895
317
root 0.545688 14.8071 -16.5102 23.91 -1.29674 -1.93886
lowerback 26.476 0.073259 -0.210444
upperback 12.5442 0.0888741 1.73077
thorax -0.730955 -0.0427519 1.97436
lowerneck -17.3732 0.980644 -1.23101
upperneck 10.573 1.72225 -0.739505
head 6.03109 0.721802 0.135313
rclavicle -3.926e-015 2.25931e-014
rhumerus -37.5217 -10.6876 -75.307
rradius 26.6971
rwrist 25.3281
rhand -18.6334 -23.8831
rfingers 7.12502
rthumb 7.65897 -53.7244
lclavicle -3.926e-015 2.25931e-014
lhumerus -36.9477 -1.53472 85.8432
lradius 17.0049
lwrist 13.4251
lhand -30.4484 -7.59455
lfingers 7.12502
lthumb -3.75051 22.3522
rfemur -72.4632 -4.77197 22.7252
rtibia 74.0175
rfoot -22.7933 -9.18197
rtoes 1.70683
lfemur -71.8848 8.29908 -22.8508
ltibia 73.7976
lfoot -21.8861 12.5753
ltoes -1.18544
318
root 0.546652 14.7937 -16.5127 23.9641 -1.29376 -1.93275
lowerback 26.5711 0.0700538 -0.203843
upperback 12.5639 0.0866462 1.7315
thorax -0.753027 -0.0437268 1.97258
lowerneck -17.4274 0.974896 -1.24365
upperneck 10.5136 1.71668 -0.731992
head 6.02081 0.719641 0.139248
rclavicle 2.88238e-015 -1.52754e-014
rhumerus -37.8234 -10.5921 -75.2499
rradius 26.7676
rwrist 25.2352
rhand -18.7507 -23.8024
rfingers 7.12502
rthumb 7.54575 -53.6478
lclavicle 2.88238e-015 -1.52754e-014
lhumerus -37.4265 -1.86086 86.0491
lradius 17.3043
lwrist 14.2593
lhand -30.5648 -7.64004
lfingers 7.12502
lthumb -3.86286 22.3047
rfemur -72.6316 -4.76749 22.7171
rtibia 74.1759
rfoot -22.8328 -9.21256
rtoes 1.65178
lfemur -72.058 8.30179 -22.886
ltibia 73.955
lfoot -21.925 12.5952
ltoes -1.22594
319
root 0.547573 14.7806 -16.515 24.0167 -1.29169 -1.92162
lowerback 26.6616 0.0662947 -0.207327
upperback 12.5851 0.08156 1.73441
thorax -0.77102 -0.046632 1.97969
lowerneck -17.4749 0.975872 -1.24595
upperneck 10.4468 1.72066 -0.746291
head 6.0073 0.720833 0.135443
rclavicle -1.11568e-014 1.07157e-014
rhumerus -38.1162 -10.4966 -75.1878
rradius 26.8183
rwrist 25.1572
rhand -18.8613 -23.7201
rfingers 7.12502
rthumb 7.43903 -53.5693
lclavicle -1.11568e-014 1.07157e-014
lhumerus -37.9145 -2.18337 86.2741
lradius 17.5898
lwrist 15.075
lhand -30.6956 -7.72644
lfingers 7.12502
lthumb -3.98918 22.216
rfemur -72.7946 -4.76151 22.7013
rtibia 74.3308
rfoot -22.8729 -9.24453
rtoes 1.6026
lfemur -72.2238 8.30413 -22.9264
ltibia 74.106
lfoot -21.9644 12.6129
ltoes -1.26156
